Coordinates
version=1
nRows=8
nColumns=40
inDegrees=yes

Units are S.I. units (second, meters, Newtons, ...)
Angles are in degrees.

endheader
time	pelvis_tilt	pelvis_list	pelvis_rotation	pelvis_tx	pelvis_ty	pelvis_tz	hip_flexion_r	hip_adduction_r	hip_rotation_r	knee_angle_r	knee_angle_r_beta	ankle_angle_r	subtalar_angle_r	mtp_angle_r	hip_flexion_l	hip_adduction_l	hip_rotation_l	knee_angle_l	knee_angle_l_beta	ankle_angle_l	subtalar_angle_l	mtp_angle_l	lumbar_extension	lumbar_bending	lumbar_rotation	arm_flex_r	arm_add_r	arm_rot_r	elbow_flex_r	pro_sup_r	wrist_flex_r	wrist_dev_r	arm_flex_l	arm_add_l	arm_rot_l	elbow_flex_l	pro_sup_l	wrist_flex_l	wrist_dev_l
      2.46500000	    -17.83854492	     -8.07993242	      9.53086802	     -1.61665393	      0.96346990	      0.34613674	     70.01380246	     -1.67431385	     -5.66996760	     77.29992219	     77.29992219	     -3.28597195	      0.00000000	      0.00000000	    -13.25505129	    -11.69861937	     -0.40218073	     14.85717729	     14.85717729	    -30.53742449	      0.00000000	      0.00000000	    -12.42882344	     14.01618535	    -14.26949959	    -59.68409454	    -14.44203767	    -32.23677421	     88.32012793	     87.26454433	      0.00000000	      0.00000000	     40.80231356	    -25.68535058	     -7.49539310	    135.17585614	     34.85880515	      0.00000000	      0.00000000
      2.47000000	    -17.68393440	     -8.12218996	      9.09083690	     -1.58529934	      0.96545091	      0.34551572	     69.64766638	     -1.29054410	     -5.27823611	     73.04489937	     73.04489937	     -3.38607811	      0.00000000	      0.00000000	    -14.74906803	    -11.61429514	     -0.27304138	     14.56144769	     14.56144769	    -32.45458262	      0.00000000	      0.00000000	    -12.43272186	     14.36210737	    -14.21001391	    -60.42110990	    -14.18460083	    -33.42942774	     88.65150370	     87.30689914	      0.00000000	      0.00000000	     40.45147079	    -26.27146039	     -7.94120476	    136.78562338	     34.94863707	      0.00000000	      0.00000000
      2.47500000	    -17.52108398	     -8.07484195	      8.77279974	     -1.55409892	      0.96740024	      0.34490765	     69.08027403	     -1.04251386	     -4.85804926	     68.61093000	     68.61093000	     -3.53097954	      0.00000000	      0.00000000	    -16.02278543	    -11.43672847	      0.10667335	     14.73088418	     14.73088418	    -33.70425820	      0.00000000	      0.00000000	    -12.47599297	     14.60183487	    -14.27113037	    -60.96020413	    -13.88895361	    -34.56286677	     88.92893000	     87.25832744	      0.00000000	      0.00000000	     39.91389767	    -26.95750637	     -8.29149485	    138.39446486	     35.05920852	      0.00000000	      0.00000000
      2.48000000	    -17.34380538	     -7.93224028	      8.56872894	     -1.52304697	      0.96930716	      0.34431201	     68.30732166	     -0.93087841	     -4.41419487	     64.00710173	     64.00710173	     -3.72062006	      0.00000000	      0.00000000	    -17.09680159	    -11.16926865	      0.76206180	     15.35455610	     15.35455610	    -34.31056477	      0.00000000	      0.00000000	    -12.56136849	     14.73045266	    -14.43544398	    -61.30566742	    -13.55673952	    -35.64855266	     89.14711390	     87.31067419	      0.00000000	      0.00000000	     39.17069159	    -27.73559600	     -8.53197073	    139.98484878	     35.11274051	      0.00000000	      0.00000000
      2.48500000	    -17.13795597	     -7.69734619	      8.46748930	     -1.49212696	      0.97117603	      0.34371991	     67.31685141	     -0.94948156	     -3.96591941	     59.24380922	     59.24380922	     -3.96149253	      0.00000000	      0.00000000	    -18.00463606	    -10.82010492	      1.69404472	     16.40465072	     16.40465072	    -34.33943312	      0.00000000	      0.00000000	    -12.70051104	     14.75525452	    -14.68079217	    -61.47466000	    -13.19661294	    -36.66573600	     89.32171109	     87.24634891	      0.00000000	      0.00000000	     38.20347898	    -28.59124632	     -8.65833449	    141.51853468	     35.22532290	      0.00000000	      0.00000000
      2.49000000	    -16.88453892	     -7.38083369	      8.45156130	     -1.46131408	      0.97302046	      0.34312786	     66.09388760	     -1.08025702	     -3.54049938	     54.33350801	     54.33350801	     -4.27120864	      0.00000000	      0.00000000	    -18.78638041	    -10.40141655	      2.86394621	     17.84365952	     17.84365952	    -33.89162333	      0.00000000	      0.00000000	    -12.91296666	     14.69239306	    -14.97749383	    -61.47824098	    -12.81896129	    -37.62151697	     89.45197008	     87.18339554	      0.00000000	      0.00000000	     36.99921661	    -29.50345646	     -8.66821681	    142.96900265	     35.33888530	      0.00000000	      0.00000000
      2.49500000	    -16.56531797	     -6.99621852	      8.49449369	     -1.43057938	      0.97485179	      0.34254873	     64.62795682	     -1.29212155	     -3.15983158	     49.29445642	     49.29445642	     -4.68089846	      0.00000000	      0.00000000	    -19.48092335	     -9.92463668	      4.19185362	     19.62928290	     19.62928290	    -33.09262394	      0.00000000	      0.00000000	    -13.21956632	     14.55893657	    -15.28976954	    -61.33622925	    -12.43941777	    -38.50767767	     89.55073988	     87.11750320	      0.00000000	      0.00000000	     35.55161761	    -30.45057811	     -8.56320880	    144.29969708	     35.45628120	      0.00000000	      0.00000000
      2.50000000	    -16.16706945	     -6.55763644	      8.56327832	     -1.39989419	      0.97666994	      0.34200976	     62.91930862	     -1.54538072	     -2.83359669	     44.15615312	     44.15615312	     -5.23403823	      0.00000000	      0.00000000	    -20.11891096	     -9.39995399	      5.56577069	     21.71946809	     21.71946809	    -32.07771498	      0.00000000	      0.00000000	    -13.63733749	     14.36963107	    -15.58054719	    -61.06720481	    -12.07636399	    -39.31199417	     89.62823198	     87.01781974	      0.00000000	      0.00000000	     33.86511997	    -31.41133732	     -8.36052513	    145.43369053	     36.12936594	      0.00000000	      0.00000000
